<svg width="1544" height="392" viewBox="0 0 1544 392" fill="none" xmlns="http://www.w3.org/2000/svg">
<path d="M298.14 245.637C278.901 245.637 262.324 239.997 248.408 228.718L263.276 212.458C272.603 221.101 284.395 225.422 298.652 225.422C311.738 225.422 318.281 221.784 318.281 214.509C318.281 210.896 316.45 208.088 312.788 206.086C309.126 204.035 302.168 201.911 291.914 199.714C283.955 197.956 277.07 195.759 271.26 193.122C265.449 190.485 260.957 186.994 257.783 182.648C254.609 178.303 253.022 173.249 253.022 167.487C253.022 158.356 256.709 150.715 264.082 144.562C271.504 138.41 281.489 135.334 294.038 135.334C311.47 135.334 325.972 139.802 337.544 148.737L324.434 166.096C315.938 158.576 305.952 154.816 294.478 154.816C288.325 154.816 283.809 155.866 280.928 157.966C278.096 160.065 276.68 162.629 276.68 165.656C276.68 169.904 278.706 172.956 282.759 174.812C286.812 176.618 293.867 178.669 303.926 180.964C315.938 183.698 325.142 187.507 331.538 192.39C337.983 197.272 341.206 204.23 341.206 213.264C341.206 223.371 337.178 231.306 329.121 237.067C321.113 242.78 310.786 245.637 298.14 245.637ZM384.272 211.506V243H363.252V137.971H421.04C431.196 137.971 439.863 141.56 447.041 148.737C454.219 155.915 457.808 164.582 457.808 174.738C457.808 184.895 454.219 193.562 447.041 200.739C439.863 207.917 431.196 211.506 421.04 211.506H384.272ZM384.272 158.991V190.485H421.04C425.386 190.485 429.097 188.947 432.173 185.871C435.249 182.795 436.787 179.084 436.787 174.738C436.787 170.393 435.249 166.682 432.173 163.605C429.097 160.529 425.386 158.991 421.04 158.991H384.272ZM511.641 137.971H524.531L577.046 243H558.149L494.062 218.391L481.465 243H457.881L511.641 137.971ZM517.939 171.735L503.73 199.567L538.594 212.971L517.939 171.735ZM639.595 245.637C629.438 245.637 620.186 243.171 611.836 238.239C603.486 233.259 596.821 226.594 591.841 218.244C586.909 209.895 584.443 200.642 584.443 190.485C584.443 180.329 586.909 171.076 591.841 162.727C596.821 154.377 603.486 147.736 611.836 142.805C620.186 137.824 629.438 135.334 639.595 135.334C654.829 135.334 669.038 142.048 682.222 155.476L666.401 169.318C657.954 160.676 649.019 156.354 639.595 156.354C630.171 156.354 622.114 159.699 615.425 166.389C608.784 173.029 605.464 181.062 605.464 190.485C605.464 199.909 608.784 207.966 615.425 214.655C622.114 221.296 630.146 224.616 639.521 224.616C648.994 224.616 657.954 220.271 666.401 211.579L682.222 225.422C668.989 238.898 654.78 245.637 639.595 245.637ZM700.605 137.971H795.088V158.991H700.605V137.971ZM721.626 200.959V221.979H795.088V243H700.605V180.012H784.614V200.959H721.626ZM871.992 137.971H966.475V158.991H871.992V137.971ZM893.013 200.959V243H871.992V180.012H956.001V200.959H893.013ZM1016.57 137.971H1029.46L1081.98 243H1063.08L998.994 218.391L986.396 243H962.812L1016.57 137.971ZM1022.87 171.735L1008.66 199.567L1043.53 212.971L1022.87 171.735ZM1179.17 243H1100.36V137.971H1121.38V221.979H1179.17V243ZM1243.4 245.637C1233.25 245.637 1223.99 243.171 1215.64 238.239C1207.29 233.259 1200.63 226.594 1195.65 218.244C1190.72 209.895 1188.25 200.642 1188.25 190.485C1188.25 180.329 1190.72 171.076 1195.65 162.727C1200.63 154.377 1207.29 147.736 1215.64 142.805C1223.99 137.824 1233.25 135.334 1243.4 135.334C1258.64 135.334 1272.85 142.048 1286.03 155.476L1270.21 169.318C1261.76 160.676 1252.83 156.354 1243.4 156.354C1233.98 156.354 1225.92 159.699 1219.23 166.389C1212.59 173.029 1209.27 181.062 1209.27 190.485C1209.27 199.909 1212.59 207.966 1219.23 214.655C1225.92 221.296 1233.96 224.616 1243.33 224.616C1252.8 224.616 1261.76 220.271 1270.21 211.579L1286.03 225.422C1272.8 238.898 1258.59 245.637 1243.4 245.637ZM1352.24 135.334C1362.4 135.334 1371.65 137.824 1380 142.805C1388.35 147.736 1394.99 154.377 1399.92 162.727C1404.9 171.076 1407.39 180.329 1407.39 190.485C1407.39 200.642 1404.9 209.895 1399.92 218.244C1394.99 226.594 1388.35 233.259 1380 238.239C1371.65 243.171 1362.4 245.637 1352.24 245.637C1342.08 245.637 1332.83 243.171 1324.48 238.239C1316.13 233.259 1309.47 226.594 1304.49 218.244C1299.56 209.895 1297.09 200.642 1297.09 190.485C1297.09 180.329 1299.56 171.076 1304.49 162.727C1309.47 154.377 1316.13 147.736 1324.48 142.805C1332.83 137.824 1342.08 135.334 1352.24 135.334ZM1352.24 156.354C1342.82 156.354 1334.76 159.699 1328.07 166.389C1321.43 173.029 1318.11 181.062 1318.11 190.485C1318.11 199.909 1321.43 207.966 1328.07 214.655C1334.76 221.296 1342.82 224.616 1352.24 224.616C1361.67 224.616 1369.7 221.296 1376.34 214.655C1383.03 207.966 1386.37 199.909 1386.37 190.485C1386.37 181.062 1383.03 173.029 1376.34 166.389C1369.7 159.699 1361.67 156.354 1352.24 156.354ZM1450.39 171.223V243H1429.37V137.971H1450.39L1508.17 209.675V137.971H1529.19V243H1508.17L1450.39 171.223Z" fill="url(#paint0_linear_1_3)"/>
<path d="M89.8927 0L141.611 49.607V196.738L0 337.438V195.895C0 192.267 1.43805 188.788 3.99779 186.222L25.5924 164.58V275.893L116.019 186.048V60.5623L89.9325 35.541L63.981 60.5452V183.885L81.9723 201.916L63.2725 220.657L38.3886 195.718V49.6241L89.8927 0Z" fill="url(#paint1_linear_1_3)"/>
<path d="M176.002 186.222C178.562 188.788 180 192.267 180 195.895V337.596L99.2993 256.83L117.383 238.681L154.408 275.735V164.58L176.002 186.222Z" fill="url(#paint2_linear_1_3)"/>
<path d="M90 265.893L77.2038 278.718V379.176L90 392L102.796 379.176V278.718L90 265.893Z" fill="url(#paint3_linear_1_3)"/>
<path d="M38.3886 316.763L59.8083 295.389V366.351L42.4074 348.987C39.8348 346.42 38.3886 342.932 38.3886 339.294V316.763Z" fill="url(#paint4_linear_1_3)"/>
<path d="M120.284 295.817L141.704 317.191V341.858C141.704 345.497 140.258 348.985 137.685 351.552L120.284 368.916V295.817Z" fill="url(#paint5_linear_1_3)"/>
<defs>
<linearGradient id="paint0_linear_1_3" x1="210.539" y1="158.118" x2="1579.08" y2="235.343" gradientUnits="userSpaceOnUse">
<stop stop-color="#6167FB"/>
<stop offset="0.54357" stop-color="#26BAF8"/>
<stop offset="0.80082" stop-color="#46F7B0"/>
</linearGradient>
<linearGradient id="paint1_linear_1_3" x1="70.8057" y1="-4.66625e-08" x2="72.7336" y2="385.588" gradientUnits="userSpaceOnUse">
<stop stop-color="#6167FB"/>
<stop offset="0.54357" stop-color="#26BAF8"/>
<stop offset="0.80082" stop-color="#46F7B0"/>
</linearGradient>
<linearGradient id="paint2_linear_1_3" x1="70.8057" y1="5.1813e-06" x2="72.7336" y2="385.588" gradientUnits="userSpaceOnUse">
<stop stop-color="#6167FB"/>
<stop offset="0.54357" stop-color="#26BAF8"/>
<stop offset="0.80082" stop-color="#46F7B0"/>
</linearGradient>
<linearGradient id="paint3_linear_1_3" x1="70.8057" y1="-1.61516e-07" x2="72.7336" y2="385.588" gradientUnits="userSpaceOnUse">
<stop stop-color="#6167FB"/>
<stop offset="0.54357" stop-color="#26BAF8"/>
<stop offset="0.80082" stop-color="#46F7B0"/>
</linearGradient>
<linearGradient id="paint4_linear_1_3" x1="70.8057" y1="6.67946e-06" x2="72.7336" y2="385.588" gradientUnits="userSpaceOnUse">
<stop stop-color="#6167FB"/>
<stop offset="0.54357" stop-color="#26BAF8"/>
<stop offset="0.80082" stop-color="#46F7B0"/>
</linearGradient>
<linearGradient id="paint5_linear_1_3" x1="70.8057" y1="2.48282e-05" x2="72.7336" y2="385.588" gradientUnits="userSpaceOnUse">
<stop stop-color="#6167FB"/>
<stop offset="0.54357" stop-color="#26BAF8"/>
<stop offset="0.80082" stop-color="#46F7B0"/>
</linearGradient>
</defs>
</svg>
